<svg width="24" height="24" viewBox="0 0 24 24" fill="none" xmlns="http://www.w3.org/2000/svg">
<path d="M12.305 23.336C18.5648 23.336 23.6393 18.2614 23.6393 12.0016C23.6393 5.74181 18.5648 0.667236 12.305 0.667236C6.04518 0.667236 0.970615 5.74181 0.970615 12.0016C0.970615 18.2614 6.04518 23.336 12.305 23.336Z" fill="#00FFF0" stroke="#FF00E5" stroke-width="0.455681" stroke-miterlimit="10"/>
<path d="M8.65666 13.4153C8.70744 13.356 8.7667 13.301 8.82595 13.246C8.90637 13.1655 8.98255 13.0936 9.0672 13.0216C10.7644 11.5403 12.9187 10.9139 14.0572 10.6727C13.0457 10.3849 11.8098 10.1267 10.5147 10.059C10.3581 10.1521 10.2057 10.2452 10.0618 10.3425C8.37308 11.4683 7.81864 12.6534 7.64511 13.1994C7.63241 13.2375 7.62395 13.2714 7.61548 13.3052C7.60702 13.3348 7.59856 13.3602 7.59856 13.3814C7.58586 13.4279 7.58163 13.4533 7.58163 13.4533C7.57739 13.4914 7.5647 13.5253 7.54777 13.5592C7.62818 13.5549 7.70437 13.5549 7.78055 13.5549C8.0091 13.5549 8.24611 13.5634 8.49159 13.5761C8.54238 13.5253 8.5974 13.4703 8.65666 13.4153Z" fill="#F519F4"/>
<path d="M7.2261 9.70344V10.0293V10.2156V10.4018V13.2163V13.3941V13.4026C7.2261 13.4026 7.2261 13.3983 7.23034 13.3941C7.23457 13.3729 7.24727 13.3094 7.27266 13.2121C7.4081 12.7211 7.93715 11.3287 9.86712 10.0463C9.956 9.98701 10.0491 9.92775 10.1422 9.87273C10.2353 9.81348 10.3327 9.75423 10.43 9.69921C12.0003 8.79347 14.3365 7.99355 17.8071 7.66342V3.76538C17.8071 3.76538 9.49044 3.9643 7.2261 9.70344Z" fill="#F519F4"/>
<path d="M9.30421 13.2967C9.24496 13.3517 9.18571 13.4025 9.12645 13.4575C9.0672 13.5083 9.01218 13.5633 8.95292 13.6184C7.5393 15.0193 6.59971 17.1228 7.2261 20.2548C7.2261 20.2548 7.37847 19.1247 8.41118 17.8762C9.3677 16.7165 11.0818 15.4595 14.1334 14.9008C14.2477 14.8796 14.3662 14.8585 14.4847 14.8415C14.6032 14.8246 14.7217 14.8077 14.8444 14.7865C14.8444 14.7865 14.8444 14.7865 14.8487 14.7865C14.8614 14.7823 14.8783 14.7823 14.891 14.7823V10.9266V10.8927C14.891 10.8927 14.8698 10.8969 14.8233 10.9012C14.3408 10.9731 11.4289 11.4429 9.30421 13.2967Z" fill="#F519F4"/>
<mask id="path-5-outside-1_193_481" maskUnits="userSpaceOnUse" x="8.63109" y="15.4409" width="8" height="6" fill="black">
<rect fill="white" x="8.63109" y="15.4409" width="8" height="6"/>
<path d="M13.6043 16.4626L12.6732 17.1355C12.6563 17.1482 12.6393 17.1694 12.6351 17.1905L12.4743 17.6815C12.4573 17.7281 12.415 17.7577 12.3685 17.7577L11.0014 17.7238C10.9802 17.7238 10.9591 17.7323 10.9421 17.7492L9.6555 19.0359C9.63434 19.057 9.62587 19.0867 9.63434 19.1163C9.6428 19.1459 9.6682 19.1671 9.69782 19.1713L9.75708 19.1798L9.94754 20.6019C9.95177 20.6357 9.98139 20.6653 10.0195 20.6696L12.7198 20.9616H12.7282C12.7578 20.9616 12.7875 20.9447 12.8002 20.9193L13.2488 19.9882C13.2827 19.9204 13.3673 19.9077 13.4223 19.9543L14.3831 20.8558C14.4254 20.8939 14.4931 20.8939 14.5355 20.8516L15.3735 20.0178C15.3904 20.0009 15.4031 19.9797 15.4031 19.9543L15.6528 18.1471C15.657 18.109 15.6443 18.0751 15.6147 18.0497L13.7398 16.4668C13.7017 16.4329 13.6467 16.4329 13.6043 16.4626ZM13.3885 19.7004L13.3292 19.6453L13.27 19.5861L12.9229 19.2602L12.8637 19.2052L12.8679 19.1925H12.851L12.8044 19.1459L12.47 18.8327C12.415 18.7819 12.4277 18.693 12.4912 18.6592L13.2276 18.2613L13.2488 18.2783L13.3123 18.3291L13.3758 18.3799L15.1745 19.8104C15.2253 19.8527 15.2296 19.9247 15.183 19.9712L14.5355 20.6273C14.4931 20.6696 14.4254 20.6696 14.3831 20.6315L13.3885 19.7004ZM12.5886 17.8423L12.6139 17.7619L12.7705 17.2879C12.779 17.2667 12.7917 17.2456 12.8086 17.2329L13.2446 16.9197C13.325 16.8604 13.435 16.9366 13.4139 17.0339L13.2403 17.7789L13.2234 17.8593L13.2065 17.9397L13.1769 18.0624C13.1684 18.092 13.1515 18.1174 13.1218 18.1344L12.8467 18.2825L12.6013 18.4179C12.5166 18.4645 12.415 18.3799 12.4447 18.2867L12.5632 17.9228L12.5886 17.8423ZM15.4835 18.2106L15.3058 19.5014C15.2931 19.5861 15.1957 19.6242 15.1322 19.5734L13.4435 18.2317L13.38 18.1809L13.3208 18.1344L13.3292 18.109L13.3715 17.9439L13.3927 17.8635L13.4139 17.7831L13.6594 16.8054C13.6805 16.7292 13.7736 16.6954 13.8329 16.7504L15.4497 18.1132C15.475 18.1386 15.4877 18.1767 15.4835 18.2106ZM11.0776 17.8847L12.25 17.9143C12.3219 17.9143 12.3727 17.9862 12.3515 18.0582L12.1653 18.6253C12.1568 18.6465 12.1568 18.6719 12.1653 18.693L12.1992 18.7862C12.2034 18.8031 12.2161 18.8158 12.2288 18.8285L12.6097 19.1882L12.669 19.2433C12.7028 19.2771 12.7155 19.3279 12.6901 19.3702L12.6817 19.3914C12.6605 19.4337 12.6139 19.4549 12.5674 19.4506L10.4766 19.129L10.0957 19.0697C10.0068 19.057 9.97293 18.947 10.0364 18.8877L11.0014 17.9228C11.0183 17.8931 11.048 17.8847 11.0776 17.8847ZM10.066 19.2221L12.5208 19.5988C12.5716 19.6072 12.6097 19.6496 12.6139 19.7046L12.6436 20.6653C12.6478 20.7331 12.5886 20.7839 12.5251 20.7754L10.1845 20.5257C10.1338 20.5214 10.0957 20.4834 10.0872 20.4326L9.93907 19.3448C9.93061 19.2729 9.99409 19.2136 10.066 19.2221ZM12.7959 20.4072L12.7705 19.5945C12.7705 19.5776 12.7748 19.5565 12.7832 19.5438C12.8171 19.4803 12.9018 19.4633 12.9525 19.5141L13.1388 19.6877C13.1726 19.7215 13.1811 19.7723 13.1642 19.8146L12.8679 20.4241C12.8467 20.4537 12.7959 20.4453 12.7959 20.4072Z"/>
</mask>
<path d="M13.6043 16.4626L12.6732 17.1355C12.6563 17.1482 12.6393 17.1694 12.6351 17.1905L12.4743 17.6815C12.4573 17.7281 12.415 17.7577 12.3685 17.7577L11.0014 17.7238C10.9802 17.7238 10.9591 17.7323 10.9421 17.7492L9.6555 19.0359C9.63434 19.057 9.62587 19.0867 9.63434 19.1163C9.6428 19.1459 9.6682 19.1671 9.69782 19.1713L9.75708 19.1798L9.94754 20.6019C9.95177 20.6357 9.98139 20.6653 10.0195 20.6696L12.7198 20.9616H12.7282C12.7578 20.9616 12.7875 20.9447 12.8002 20.9193L13.2488 19.9882C13.2827 19.9204 13.3673 19.9077 13.4223 19.9543L14.3831 20.8558C14.4254 20.8939 14.4931 20.8939 14.5355 20.8516L15.3735 20.0178C15.3904 20.0009 15.4031 19.9797 15.4031 19.9543L15.6528 18.1471C15.657 18.109 15.6443 18.0751 15.6147 18.0497L13.7398 16.4668C13.7017 16.4329 13.6467 16.4329 13.6043 16.4626ZM13.3885 19.7004L13.3292 19.6453L13.27 19.5861L12.9229 19.2602L12.8637 19.2052L12.8679 19.1925H12.851L12.8044 19.1459L12.47 18.8327C12.415 18.7819 12.4277 18.693 12.4912 18.6592L13.2276 18.2613L13.2488 18.2783L13.3123 18.3291L13.3758 18.3799L15.1745 19.8104C15.2253 19.8527 15.2296 19.9247 15.183 19.9712L14.5355 20.6273C14.4931 20.6696 14.4254 20.6696 14.3831 20.6315L13.3885 19.7004ZM12.5886 17.8423L12.6139 17.7619L12.7705 17.2879C12.779 17.2667 12.7917 17.2456 12.8086 17.2329L13.2446 16.9197C13.325 16.8604 13.435 16.9366 13.4139 17.0339L13.2403 17.7789L13.2234 17.8593L13.2065 17.9397L13.1769 18.0624C13.1684 18.092 13.1515 18.1174 13.1218 18.1344L12.8467 18.2825L12.6013 18.4179C12.5166 18.4645 12.415 18.3799 12.4447 18.2867L12.5632 17.9228L12.5886 17.8423ZM15.4835 18.2106L15.3058 19.5014C15.2931 19.5861 15.1957 19.6242 15.1322 19.5734L13.4435 18.2317L13.38 18.1809L13.3208 18.1344L13.3292 18.109L13.3715 17.9439L13.3927 17.8635L13.4139 17.7831L13.6594 16.8054C13.6805 16.7292 13.7736 16.6954 13.8329 16.7504L15.4497 18.1132C15.475 18.1386 15.4877 18.1767 15.4835 18.2106ZM11.0776 17.8847L12.25 17.9143C12.3219 17.9143 12.3727 17.9862 12.3515 18.0582L12.1653 18.6253C12.1568 18.6465 12.1568 18.6719 12.1653 18.693L12.1992 18.7862C12.2034 18.8031 12.2161 18.8158 12.2288 18.8285L12.6097 19.1882L12.669 19.2433C12.7028 19.2771 12.7155 19.3279 12.6901 19.3702L12.6817 19.3914C12.6605 19.4337 12.6139 19.4549 12.5674 19.4506L10.4766 19.129L10.0957 19.0697C10.0068 19.057 9.97293 18.947 10.0364 18.8877L11.0014 17.9228C11.0183 17.8931 11.048 17.8847 11.0776 17.8847ZM10.066 19.2221L12.5208 19.5988C12.5716 19.6072 12.6097 19.6496 12.6139 19.7046L12.6436 20.6653C12.6478 20.7331 12.5886 20.7839 12.5251 20.7754L10.1845 20.5257C10.1338 20.5214 10.0957 20.4834 10.0872 20.4326L9.93907 19.3448C9.93061 19.2729 9.99409 19.2136 10.066 19.2221ZM12.7959 20.4072L12.7705 19.5945C12.7705 19.5776 12.7748 19.5565 12.7832 19.5438C12.8171 19.4803 12.9018 19.4633 12.9525 19.5141L13.1388 19.6877C13.1726 19.7215 13.1811 19.7723 13.1642 19.8146L12.8679 20.4241C12.8467 20.4537 12.7959 20.4453 12.7959 20.4072Z" fill="#F519F4"/>
<path d="M13.6043 16.4626L12.6732 17.1355C12.6563 17.1482 12.6393 17.1694 12.6351 17.1905L12.4743 17.6815C12.4573 17.7281 12.415 17.7577 12.3685 17.7577L11.0014 17.7238C10.9802 17.7238 10.9591 17.7323 10.9421 17.7492L9.6555 19.0359C9.63434 19.057 9.62587 19.0867 9.63434 19.1163C9.6428 19.1459 9.6682 19.1671 9.69782 19.1713L9.75708 19.1798L9.94754 20.6019C9.95177 20.6357 9.98139 20.6653 10.0195 20.6696L12.7198 20.9616H12.7282C12.7578 20.9616 12.7875 20.9447 12.8002 20.9193L13.2488 19.9882C13.2827 19.9204 13.3673 19.9077 13.4223 19.9543L14.3831 20.8558C14.4254 20.8939 14.4931 20.8939 14.5355 20.8516L15.3735 20.0178C15.3904 20.0009 15.4031 19.9797 15.4031 19.9543L15.6528 18.1471C15.657 18.109 15.6443 18.0751 15.6147 18.0497L13.7398 16.4668C13.7017 16.4329 13.6467 16.4329 13.6043 16.4626ZM13.3885 19.7004L13.3292 19.6453L13.27 19.5861L12.9229 19.2602L12.8637 19.2052L12.8679 19.1925H12.851L12.8044 19.1459L12.47 18.8327C12.415 18.7819 12.4277 18.693 12.4912 18.6592L13.2276 18.2613L13.2488 18.2783L13.3123 18.3291L13.3758 18.3799L15.1745 19.8104C15.2253 19.8527 15.2296 19.9247 15.183 19.9712L14.5355 20.6273C14.4931 20.6696 14.4254 20.6696 14.3831 20.6315L13.3885 19.7004ZM12.5886 17.8423L12.6139 17.7619L12.7705 17.2879C12.779 17.2667 12.7917 17.2456 12.8086 17.2329L13.2446 16.9197C13.325 16.8604 13.435 16.9366 13.4139 17.0339L13.2403 17.7789L13.2234 17.8593L13.2065 17.9397L13.1769 18.0624C13.1684 18.092 13.1515 18.1174 13.1218 18.1344L12.8467 18.2825L12.6013 18.4179C12.5166 18.4645 12.415 18.3799 12.4447 18.2867L12.5632 17.9228L12.5886 17.8423ZM15.4835 18.2106L15.3058 19.5014C15.2931 19.5861 15.1957 19.6242 15.1322 19.5734L13.4435 18.2317L13.38 18.1809L13.3208 18.1344L13.3292 18.109L13.3715 17.9439L13.3927 17.8635L13.4139 17.7831L13.6594 16.8054C13.6805 16.7292 13.7736 16.6954 13.8329 16.7504L15.4497 18.1132C15.475 18.1386 15.4877 18.1767 15.4835 18.2106ZM11.0776 17.8847L12.25 17.9143C12.3219 17.9143 12.3727 17.9862 12.3515 18.0582L12.1653 18.6253C12.1568 18.6465 12.1568 18.6719 12.1653 18.693L12.1992 18.7862C12.2034 18.8031 12.2161 18.8158 12.2288 18.8285L12.6097 19.1882L12.669 19.2433C12.7028 19.2771 12.7155 19.3279 12.6901 19.3702L12.6817 19.3914C12.6605 19.4337 12.6139 19.4549 12.5674 19.4506L10.4766 19.129L10.0957 19.0697C10.0068 19.057 9.97293 18.947 10.0364 18.8877L11.0014 17.9228C11.0183 17.8931 11.048 17.8847 11.0776 17.8847ZM10.066 19.2221L12.5208 19.5988C12.5716 19.6072 12.6097 19.6496 12.6139 19.7046L12.6436 20.6653C12.6478 20.7331 12.5886 20.7839 12.5251 20.7754L10.1845 20.5257C10.1338 20.5214 10.0957 20.4834 10.0872 20.4326L9.93907 19.3448C9.93061 19.2729 9.99409 19.2136 10.066 19.2221ZM12.7959 20.4072L12.7705 19.5945C12.7705 19.5776 12.7748 19.5565 12.7832 19.5438C12.8171 19.4803 12.9018 19.4633 12.9525 19.5141L13.1388 19.6877C13.1726 19.7215 13.1811 19.7723 13.1642 19.8146L12.8679 20.4241C12.8467 20.4537 12.7959 20.4453 12.7959 20.4072Z" stroke="#F519F4" stroke-width="0.182272" stroke-linejoin="bevel" mask="url(#path-5-outside-1_193_481)"/>
</svg>
