<svg width="25" height="24" viewBox="0 0 25 24" fill="none" xmlns="http://www.w3.org/2000/svg">
<g clip-path="url(#clip0_414_3794)">
<path d="M20.6505 4.1556C19.1208 3.45372 17.4805 2.93661 15.7654 2.64043C15.7342 2.63472 15.703 2.649 15.6869 2.67757C15.4759 3.05279 15.2422 3.54229 15.0786 3.92703C13.2339 3.65086 11.3987 3.65086 9.59182 3.92703C9.42814 3.53373 9.18598 3.05279 8.97407 2.67757C8.95798 2.64996 8.92678 2.63567 8.89555 2.64043C7.18141 2.93566 5.54106 3.45278 4.01043 4.1556C3.99718 4.16132 3.98582 4.17085 3.97828 4.18322C0.866888 8.83158 0.0145459 13.3657 0.432676 17.8436C0.434568 17.8655 0.446866 17.8864 0.463894 17.8998C2.51671 19.4073 4.5052 20.3225 6.45678 20.9291C6.48801 20.9387 6.5211 20.9272 6.54098 20.9015C7.00262 20.2711 7.41414 19.6064 7.76697 18.9073C7.78779 18.8664 7.76792 18.8178 7.72536 18.8016C7.07263 18.554 6.4511 18.2521 5.85323 17.9093C5.80594 17.8817 5.80215 17.814 5.84565 17.7817C5.97147 17.6874 6.09732 17.5893 6.21745 17.4902C6.23919 17.4722 6.26947 17.4683 6.29503 17.4798C10.2228 19.273 14.475 19.273 18.3564 17.4798C18.382 17.4674 18.4123 17.4712 18.435 17.4893C18.5551 17.5883 18.681 17.6874 18.8077 17.7817C18.8512 17.814 18.8484 17.8817 18.8011 17.9093C18.2032 18.2588 17.5817 18.554 16.928 18.8007C16.8855 18.8169 16.8665 18.8664 16.8873 18.9073C17.2477 19.6054 17.6593 20.2701 18.1124 20.9006C18.1313 20.9272 18.1654 20.9387 18.1966 20.9291C20.1576 20.3225 22.1461 19.4073 24.1989 17.8998C24.2169 17.8864 24.2283 17.8664 24.2302 17.8445C24.7306 12.6676 23.392 8.17067 20.6817 4.18417C20.6751 4.17085 20.6638 4.16132 20.6505 4.1556ZM8.35352 15.117C7.17099 15.117 6.19663 14.0314 6.19663 12.6981C6.19663 11.3648 7.1521 10.2792 8.35352 10.2792C9.56437 10.2792 10.5293 11.3743 10.5104 12.6981C10.5104 14.0314 9.5549 15.117 8.35352 15.117ZM16.3282 15.117C15.1458 15.117 14.1714 14.0314 14.1714 12.6981C14.1714 11.3648 15.1268 10.2792 16.3282 10.2792C17.5391 10.2792 18.504 11.3743 18.4851 12.6981C18.4851 14.0314 17.5391 15.117 16.3282 15.117Z" fill="#D8D8D8"/>
</g>
<defs>
<clipPath id="clip0_414_3794">
<rect width="24" height="24" fill="white" transform="translate(0.333496)"/>
</clipPath>
</defs>
</svg>
