<svg viewBox="0 0 25 25" fill="none" xmlns="http://www.w3.org/2000/svg">
<g clip-path="url(#clip0_393_2090)">
<path d="M20.517 4.36993C18.9873 3.66805 17.3469 3.15093 15.6318 2.85476C15.6006 2.84904 15.5694 2.86333 15.5533 2.8919C15.3424 3.26711 15.1087 3.75661 14.945 4.14135C13.1004 3.86519 11.2651 3.86519 9.45827 4.14135C9.2946 3.74806 9.05244 3.26711 8.84053 2.8919C8.82444 2.86428 8.79323 2.85 8.762 2.85476C7.04786 3.14999 5.40751 3.6671 3.87689 4.36993C3.86364 4.37564 3.85228 4.38517 3.84474 4.39755C0.733343 9.04591 -0.118999 13.58 0.299131 18.0579C0.301023 18.0798 0.313321 18.1008 0.330349 18.1141C2.38316 19.6216 4.37166 20.5368 6.32323 21.1435C6.35446 21.153 6.38756 21.1416 6.40743 21.1158C6.86908 20.4854 7.28059 19.8207 7.63343 19.1216C7.65425 19.0807 7.63437 19.0321 7.59182 19.0159C6.93908 18.7683 6.31755 18.4664 5.71968 18.1236C5.67239 18.096 5.6686 18.0284 5.71211 17.996C5.83792 17.9017 5.96377 17.8036 6.08391 17.7046C6.10564 17.6865 6.13593 17.6827 6.16148 17.6941C10.0892 19.4874 14.3415 19.4874 18.2229 17.6941C18.2485 17.6817 18.2787 17.6855 18.3014 17.7036C18.4216 17.8027 18.5474 17.9017 18.6742 17.996C18.7177 18.0284 18.7148 18.096 18.6675 18.1236C18.0697 18.4731 17.4481 18.7683 16.7945 19.015C16.7519 19.0312 16.733 19.0807 16.7538 19.1216C17.1142 19.8197 17.5257 20.4844 17.9788 21.1149C17.9978 21.1416 18.0318 21.153 18.063 21.1435C20.0241 20.5368 22.0126 19.6216 24.0654 18.1141C24.0834 18.1008 24.0947 18.0808 24.0966 18.0589C24.597 12.8819 23.2584 8.38499 20.5482 4.39849C20.5415 4.38517 20.5302 4.37564 20.517 4.36993ZM8.21997 15.3313C7.03745 15.3313 6.06308 14.2457 6.06308 12.9124C6.06308 11.5791 7.01855 10.4935 8.21997 10.4935C9.43082 10.4935 10.3958 11.5887 10.3768 12.9124C10.3768 14.2457 9.42136 15.3313 8.21997 15.3313ZM16.1947 15.3313C15.0122 15.3313 14.0378 14.2457 14.0378 12.9124C14.0378 11.5791 14.9933 10.4935 16.1947 10.4935C17.4056 10.4935 18.3705 11.5887 18.3516 12.9124C18.3516 14.2457 17.4056 15.3313 16.1947 15.3313Z" fill="#606060"/>
</g>
<defs>
<clipPath id="clip0_393_2090">
<rect width="100%" height="100%" fill="white" transform="translate(0.200012 0.214355)"/>
</clipPath>
</defs>
</svg>
