<svg width="25" height="25" viewBox="0 0 25 25" fill="none" xmlns="http://www.w3.org/2000/svg">
<g clip-path="url(#clip0_393_2092)">
<path fill-rule="evenodd" clip-rule="evenodd" d="M12.4003 0.714355C9.55155 0.715834 6.79619 1.72481 4.62692 3.56088C2.45766 5.39694 1.01596 7.94037 0.559599 10.7364C0.103241 13.5323 0.661982 16.3986 2.13593 18.8225C3.60987 21.2465 5.90289 23.0701 8.60498 23.9673C9.20111 24.078 9.42565 23.7085 9.42565 23.3944C9.42565 23.0802 9.41372 22.1694 9.40975 21.1736C6.07145 21.8947 5.36604 19.7648 5.36604 19.7648C4.82158 18.3818 4.03469 18.0182 4.03469 18.0182C2.94577 17.2793 4.11617 17.2931 4.11617 17.2931C5.32233 17.3781 5.95621 18.5241 5.95621 18.5241C7.02526 20.3477 8.76395 19.8202 9.44751 19.5119C9.55481 18.7394 9.86679 18.2139 10.2106 17.9155C7.54388 17.6152 4.74209 16.5917 4.74209 12.0198C4.72557 10.8341 5.16808 9.68741 5.97807 8.81704C5.85487 8.51672 5.44353 7.30359 6.0953 5.65579C6.0953 5.65579 7.10276 5.33571 9.39585 6.8788C11.3627 6.34398 13.4379 6.34398 15.4048 6.8788C17.6959 5.33571 18.7014 5.65579 18.7014 5.65579C19.3551 7.29964 18.9438 8.51277 18.8206 8.81704C19.6331 9.68755 20.0766 10.8362 20.0585 12.0237C20.0585 16.6056 17.2508 17.6152 14.5801 17.9096C15.0094 18.281 15.3929 19.0061 15.3929 20.1205C15.3929 21.7169 15.379 23.0012 15.379 23.3944C15.379 23.7125 15.5955 24.0839 16.2036 23.9673C18.906 23.07 21.1993 21.2461 22.6732 18.8217C24.1471 16.3973 24.7055 13.5307 24.2487 10.7344C23.7918 7.93816 22.3494 5.39471 20.1794 3.55896C18.0094 1.72321 15.2534 0.714897 12.4043 0.714355H12.4003Z" fill="#606060"/>
<path d="M4.94449 17.8465C4.91866 17.9058 4.82328 17.9235 4.74578 17.882C4.66829 17.8406 4.61067 17.7635 4.63848 17.7023C4.6663 17.641 4.7597 17.6252 4.83719 17.6667C4.91469 17.7082 4.9743 17.7872 4.94449 17.8465Z" fill="#606060"/>
<path d="M5.43134 18.386C5.39019 18.4066 5.34311 18.4124 5.29816 18.4023C5.25322 18.3922 5.2132 18.3669 5.18495 18.3307C5.10745 18.2477 5.09155 18.1331 5.15116 18.0817C5.21077 18.0303 5.31808 18.0541 5.39558 18.137C5.47307 18.22 5.49096 18.3346 5.43134 18.386Z" fill="#606060"/>
<path d="M5.9043 19.0716C5.83078 19.123 5.70558 19.0716 5.63604 18.9689C5.61681 18.9505 5.60151 18.9284 5.59107 18.9039C5.58062 18.8795 5.57523 18.8532 5.57523 18.8266C5.57523 18.8001 5.58062 18.7738 5.59107 18.7493C5.60151 18.7249 5.61681 18.7028 5.63604 18.6844C5.70956 18.635 5.83475 18.6844 5.9043 18.7851C5.97385 18.8859 5.97583 19.0203 5.9043 19.0716Z" fill="#606060"/>
<path d="M6.54611 19.7351C6.48054 19.8082 6.3474 19.7884 6.23811 19.6897C6.12882 19.5909 6.10299 19.4565 6.16856 19.3854C6.23413 19.3143 6.36727 19.334 6.48053 19.4308C6.5938 19.5276 6.61566 19.664 6.54611 19.7351Z" fill="#606060"/>
<path d="M7.44623 20.1227C7.41642 20.2156 7.2813 20.2571 7.14618 20.2176C7.01106 20.1781 6.92164 20.0674 6.94747 19.9726C6.9733 19.8777 7.11041 19.8343 7.24752 19.8777C7.38463 19.9212 7.47206 20.0259 7.44623 20.1227Z" fill="#606060"/>
<path d="M8.42789 20.1895C8.42789 20.2863 8.31662 20.3693 8.17355 20.3713C8.03048 20.3733 7.91324 20.2942 7.91324 20.1974C7.91324 20.1006 8.02451 20.0176 8.16758 20.0157C8.31065 20.0137 8.42789 20.0907 8.42789 20.1895Z" fill="#606060"/>
<path d="M9.34195 20.0378C9.35983 20.1346 9.26048 20.2353 9.11741 20.2591C8.97434 20.2828 8.84915 20.2255 8.83127 20.1306C8.81339 20.0358 8.91671 19.9331 9.05581 19.9074C9.19491 19.8817 9.32407 19.941 9.34195 20.0378Z" fill="#606060"/>
</g>
<defs>
<clipPath id="clip0_393_2092">
<rect width="24" height="24" fill="white" transform="translate(0.400024 0.214355)"/>
</clipPath>
</defs>
</svg>
