<svg viewBox="0 0 25 25" fill="none" xmlns="http://www.w3.org/2000/svg">
<g clip-path="url(#clip0_393_2089)">
<path d="M12.6 2.37578C15.8063 2.37578 16.186 2.38984 17.4469 2.44609C18.6188 2.49766 19.2516 2.69453 19.6735 2.85859C20.2313 3.07422 20.6344 3.33672 21.0516 3.75391C21.4735 4.17578 21.7313 4.57422 21.9469 5.13203C22.111 5.55391 22.3078 6.19141 22.3594 7.35859C22.4157 8.62422 22.4297 9.00391 22.4297 12.2055C22.4297 15.4117 22.4157 15.7914 22.3594 17.0523C22.3078 18.2242 22.111 18.857 21.9469 19.2789C21.7313 19.8367 21.4688 20.2398 21.0516 20.657C20.6297 21.0789 20.2313 21.3367 19.6735 21.5523C19.2516 21.7164 18.6141 21.9133 17.4469 21.9648C16.1813 22.0211 15.8016 22.0352 12.6 22.0352C9.39379 22.0352 9.0141 22.0211 7.75316 21.9648C6.58129 21.9133 5.94847 21.7164 5.5266 21.5523C4.96879 21.3367 4.56566 21.0742 4.14847 20.657C3.7266 20.2352 3.46879 19.8367 3.25316 19.2789C3.0891 18.857 2.89222 18.2195 2.84066 17.0523C2.78441 15.7867 2.77035 15.407 2.77035 12.2055C2.77035 8.99922 2.78441 8.61953 2.84066 7.35859C2.89222 6.18672 3.0891 5.55391 3.25316 5.13203C3.46879 4.57422 3.73129 4.17109 4.14847 3.75391C4.57035 3.33203 4.96879 3.07422 5.5266 2.85859C5.94847 2.69453 6.58597 2.49766 7.75316 2.44609C9.0141 2.38984 9.39379 2.37578 12.6 2.37578ZM12.6 0.214844C9.34223 0.214844 8.93441 0.228906 7.65472 0.285156C6.37972 0.341406 5.50316 0.547656 4.74379 0.842969C3.9516 1.15234 3.28129 1.56016 2.61566 2.23047C1.94535 2.89609 1.53754 3.56641 1.22816 4.35391C0.932849 5.11797 0.726599 5.98984 0.670349 7.26484C0.614099 8.54922 0.600037 8.95703 0.600037 12.2148C0.600037 15.4727 0.614099 15.8805 0.670349 17.1602C0.726599 18.4352 0.932849 19.3117 1.22816 20.0711C1.53754 20.8633 1.94535 21.5336 2.61566 22.1992C3.28129 22.8648 3.9516 23.2773 4.7391 23.582C5.50316 23.8773 6.37504 24.0836 7.65004 24.1398C8.92972 24.1961 9.33754 24.2102 12.5953 24.2102C15.8532 24.2102 16.261 24.1961 17.5407 24.1398C18.8157 24.0836 19.6922 23.8773 20.4516 23.582C21.2391 23.2773 21.9094 22.8648 22.575 22.1992C23.2407 21.5336 23.6532 20.8633 23.9578 20.0758C24.2532 19.3117 24.4594 18.4398 24.5157 17.1648C24.5719 15.8852 24.586 15.4773 24.586 12.2195C24.586 8.96172 24.5719 8.55391 24.5157 7.27422C24.4594 5.99922 24.2532 5.12266 23.9578 4.36328C23.6625 3.56641 23.2547 2.89609 22.5844 2.23047C21.9188 1.56484 21.2485 1.15234 20.461 0.847656C19.6969 0.552344 18.825 0.346094 17.55 0.289844C16.2657 0.228906 15.8579 0.214844 12.6 0.214844Z" fill="#606060"/>
<path d="M12.6 6.05078C9.19691 6.05078 6.43597 8.81172 6.43597 12.2148C6.43597 15.618 9.19691 18.3789 12.6 18.3789C16.0032 18.3789 18.7641 15.618 18.7641 12.2148C18.7641 8.81172 16.0032 6.05078 12.6 6.05078ZM12.6 16.2133C10.3922 16.2133 8.6016 14.4227 8.6016 12.2148C8.6016 10.007 10.3922 8.21641 12.6 8.21641C14.8078 8.21641 16.5985 10.007 16.5985 12.2148C16.5985 14.4227 14.8078 16.2133 12.6 16.2133Z" fill="#606060"/>
<path d="M20.4469 5.80674C20.4469 6.60362 19.8 7.2458 19.0078 7.2458C18.211 7.2458 17.5688 6.59893 17.5688 5.80674C17.5688 5.00986 18.2157 4.36768 19.0078 4.36768C19.8 4.36768 20.4469 5.01455 20.4469 5.80674Z" fill="#606060"/>
</g>
<defs>
<clipPath id="clip0_393_2089">
<rect width="100%" height="100%" fill="white" transform="translate(0.600006 0.214355)"/>
</clipPath>
</defs>
</svg>
