<svg width="25" height="24" viewBox="0 0 25 24" fill="none" xmlns="http://www.w3.org/2000/svg">
<path d="M12.6665 2.16143C15.8728 2.16143 16.2524 2.17549 17.5134 2.23174C18.6853 2.2833 19.3181 2.48018 19.7399 2.64424C20.2978 2.85986 20.7009 3.12236 21.1181 3.53955C21.5399 3.96143 21.7978 4.35986 22.0134 4.91768C22.1774 5.33955 22.3743 5.97705 22.4259 7.14424C22.4821 8.40986 22.4962 8.78955 22.4962 11.9911C22.4962 15.1974 22.4821 15.5771 22.4259 16.838C22.3743 18.0099 22.1774 18.6427 22.0134 19.0646C21.7978 19.6224 21.5353 20.0255 21.1181 20.4427C20.6962 20.8646 20.2978 21.1224 19.7399 21.338C19.3181 21.5021 18.6806 21.6989 17.5134 21.7505C16.2478 21.8067 15.8681 21.8208 12.6665 21.8208C9.46025 21.8208 9.08057 21.8067 7.81963 21.7505C6.64775 21.6989 6.01494 21.5021 5.59307 21.338C5.03525 21.1224 4.63213 20.8599 4.21494 20.4427C3.79307 20.0208 3.53525 19.6224 3.31963 19.0646C3.15557 18.6427 2.95869 18.0052 2.90713 16.838C2.85088 15.5724 2.83682 15.1927 2.83682 11.9911C2.83682 8.78486 2.85088 8.40518 2.90713 7.14424C2.95869 5.97236 3.15557 5.33955 3.31963 4.91768C3.53525 4.35986 3.79775 3.95674 4.21494 3.53955C4.63682 3.11768 5.03525 2.85986 5.59307 2.64424C6.01494 2.48018 6.65244 2.2833 7.81963 2.23174C9.08057 2.17549 9.46025 2.16143 12.6665 2.16143ZM12.6665 0.000488281C9.40869 0.000488281 9.00088 0.0145508 7.72119 0.0708008C6.44619 0.127051 5.56963 0.333301 4.81025 0.628613C4.01807 0.937988 3.34775 1.3458 2.68213 2.01611C2.01182 2.68174 1.604 3.35205 1.29463 4.13955C0.999316 4.90361 0.793066 5.77549 0.736816 7.05049C0.680566 8.33486 0.666504 8.74268 0.666504 12.0005C0.666504 15.2583 0.680566 15.6661 0.736816 16.9458C0.793066 18.2208 0.999316 19.0974 1.29463 19.8567C1.604 20.6489 2.01182 21.3192 2.68213 21.9849C3.34775 22.6505 4.01807 23.063 4.80557 23.3677C5.56963 23.663 6.4415 23.8692 7.7165 23.9255C8.99619 23.9817 9.404 23.9958 12.6618 23.9958C15.9196 23.9958 16.3274 23.9817 17.6071 23.9255C18.8821 23.8692 19.7587 23.663 20.5181 23.3677C21.3056 23.063 21.9759 22.6505 22.6415 21.9849C23.3071 21.3192 23.7196 20.6489 24.0243 19.8614C24.3196 19.0974 24.5259 18.2255 24.5821 16.9505C24.6384 15.6708 24.6524 15.263 24.6524 12.0052C24.6524 8.74736 24.6384 8.33955 24.5821 7.05986C24.5259 5.78486 24.3196 4.9083 24.0243 4.14893C23.729 3.35205 23.3212 2.68174 22.6509 2.01611C21.9853 1.35049 21.3149 0.937988 20.5274 0.633301C19.7634 0.337988 18.8915 0.131738 17.6165 0.0754883C16.3321 0.0145508 15.9243 0.000488281 12.6665 0.000488281Z" fill="#D8D8D8"/>
<path d="M12.6665 5.83643C9.26338 5.83643 6.50244 8.59736 6.50244 12.0005C6.50244 15.4036 9.26338 18.1645 12.6665 18.1645C16.0696 18.1645 18.8306 15.4036 18.8306 12.0005C18.8306 8.59736 16.0696 5.83643 12.6665 5.83643ZM12.6665 15.9989C10.4587 15.9989 8.66807 14.2083 8.66807 12.0005C8.66807 9.79268 10.4587 8.00205 12.6665 8.00205C14.8743 8.00205 16.6649 9.79268 16.6649 12.0005C16.6649 14.2083 14.8743 15.9989 12.6665 15.9989Z" fill="#D8D8D8"/>
<path d="M20.5134 5.59238C20.5134 6.38926 19.8665 7.03145 19.0743 7.03145C18.2774 7.03145 17.6353 6.38457 17.6353 5.59238C17.6353 4.79551 18.2821 4.15332 19.0743 4.15332C19.8665 4.15332 20.5134 4.8002 20.5134 5.59238Z" fill="#D8D8D8"/>
</svg>
