<svg width="100%" height="100%" viewBox="0 0 33 32" fill="none" xmlns="http://www.w3.org/2000/svg">
<circle cx="16.334" cy="16" r="16" fill="#D8D8D8"/>
<path fill-rule="evenodd" clip-rule="evenodd" d="M17.0628 7.36403L23.6114 10.6383C24.1677 10.9148 24.5196 11.4823 24.52 12.1036V19.9046C24.5196 20.5258 24.1677 21.0934 23.6114 21.3698L17.0628 24.6441C16.6016 24.8749 16.0587 24.8749 15.5975 24.6441L9.04891 21.3698C8.49309 21.0898 8.14415 20.5188 8.14848 19.8964V12.1036C8.14881 11.4823 8.50074 10.9148 9.0571 10.6383L15.6057 7.36403C16.0646 7.13598 16.6038 7.13598 17.0628 7.36403Z" stroke="#0C0815" stroke-width="1.5" stroke-linecap="round" stroke-linejoin="round"/>
<path d="M8.41016 11.2195L16.334 15.1814L24.2578 11.2195" stroke="#0C0815" stroke-width="1.5" stroke-linecap="round" stroke-linejoin="round"/>
<path d="M16.334 24.8079V15.1814" stroke="#0C0815" stroke-width="1.5" stroke-linecap="round" stroke-linejoin="round"/>
<path d="M12.2422 9.04211L20.4279 13.135" stroke="#0C0815" stroke-width="1.5" stroke-linecap="round" stroke-linejoin="round"/>
</svg>
