<svg width="24" height="24" viewBox="0 0 24 24" fill="none" xmlns="http://www.w3.org/2000/svg">
<path fill-rule="evenodd" clip-rule="evenodd" d="M24 12.0001C24 18.6275 18.6274 24.0001 12 24.0001C5.37258 24.0001 0 18.6275 0 12.0001C0 5.37267 5.37258 9.15527e-05 12 9.15527e-05C18.6274 9.15527e-05 24 5.37267 24 12.0001ZM18.2456 10.246C19.214 10.246 20 11.032 20 12.0004C20 12.7162 19.5649 13.3337 18.9895 13.6144C19.0175 13.7828 19.0316 13.9513 19.0316 14.1337C19.0316 16.8284 15.9018 19.0039 12.0281 19.0039C8.15439 19.0039 5.02457 16.8284 5.02457 14.1337C5.02457 13.9513 5.0386 13.7688 5.06667 13.6004C4.44913 13.3197 4.02808 12.7162 4.02808 12.0004C4.02808 11.032 4.81404 10.246 5.78246 10.246C6.24562 10.246 6.68071 10.4425 6.98948 10.7372C8.1965 9.853 9.86667 9.30564 11.7333 9.2495L12.6176 5.06704C12.6456 4.98283 12.6877 4.91265 12.7579 4.87055C12.8281 4.82844 12.9123 4.81441 12.9965 4.82844L15.9018 5.44599C16.0983 5.02493 16.5193 4.74423 17.0105 4.74423C17.6983 4.74423 18.2597 5.30564 18.2597 5.99336C18.2597 6.68108 17.6983 7.24248 17.0105 7.24248C16.3368 7.24248 15.7895 6.70915 15.7614 6.0495L13.1649 5.50213L12.3649 9.2495C14.1895 9.31967 15.8456 9.88107 17.0386 10.7372C17.3474 10.4284 17.7684 10.246 18.2456 10.246ZM9.24913 12.0004C8.56141 12.0004 8.00001 12.5618 8.00001 13.2495C8.00001 13.9372 8.56141 14.4986 9.24913 14.4986C9.93685 14.4986 10.4983 13.9372 10.4983 13.2495C10.4983 12.5618 9.93685 12.0004 9.24913 12.0004ZM12.014 17.46C12.4912 17.46 14.1193 17.4039 14.9754 16.5477C15.1018 16.4214 15.1018 16.2249 15.0035 16.0846C14.8772 15.9583 14.6667 15.9583 14.5404 16.0846C13.993 16.6179 12.8561 16.8144 12.0281 16.8144C11.2 16.8144 10.0491 16.6179 9.5158 16.0846C9.38948 15.9583 9.17895 15.9583 9.05264 16.0846C8.92632 16.2109 8.92632 16.4214 9.05264 16.5477C9.89474 17.3898 11.5368 17.46 12.014 17.46ZM13.5018 13.2495C13.5018 13.9372 14.0632 14.4986 14.7509 14.4986C15.4386 14.4986 16 13.9372 16 13.2495C16 12.5618 15.4386 12.0004 14.7509 12.0004C14.0632 12.0004 13.5018 12.5618 13.5018 13.2495Z" fill="#D8D8D8"/>
</svg>
