<svg width="25" height="25" viewBox="0 0 25 25" fill="none" xmlns="http://www.w3.org/2000/svg">
<path fill-rule="evenodd" clip-rule="evenodd" d="M24.8 12.2144C24.8 18.8418 19.4274 24.2144 12.8 24.2144C6.1726 24.2144 0.800018 18.8418 0.800018 12.2144C0.800018 5.58694 6.1726 0.214355 12.8 0.214355C19.4274 0.214355 24.8 5.58694 24.8 12.2144ZM19.0456 10.4603C20.0141 10.4603 20.8 11.2462 20.8 12.2146C20.8 12.9304 20.3649 13.548 19.7895 13.8287C19.8176 13.9971 19.8316 14.1655 19.8316 14.348C19.8316 17.0427 16.7018 19.2181 12.8281 19.2181C8.95441 19.2181 5.82459 17.0427 5.82459 14.348C5.82459 14.1655 5.83862 13.9831 5.86669 13.8146C5.24915 13.5339 4.82809 12.9304 4.82809 12.2146C4.82809 11.2462 5.61406 10.4603 6.58248 10.4603C7.04564 10.4603 7.48073 10.6567 7.7895 10.9515C8.99652 10.0673 10.6667 9.5199 12.5334 9.46376L13.4176 5.2813C13.4456 5.19709 13.4877 5.12692 13.5579 5.08481C13.6281 5.04271 13.7123 5.02867 13.7965 5.04271L16.7018 5.66025C16.8983 5.2392 17.3193 4.9585 17.8106 4.9585C18.4983 4.9585 19.0597 5.5199 19.0597 6.20762C19.0597 6.89534 18.4983 7.45674 17.8106 7.45674C17.1369 7.45674 16.5895 6.92341 16.5614 6.26376L13.9649 5.71639L13.1649 9.46376C14.9895 9.53394 16.6456 10.0953 17.8386 10.9515C18.1474 10.6427 18.5684 10.4603 19.0456 10.4603ZM10.0491 12.2146C9.36143 12.2146 8.80002 12.776 8.80002 13.4638C8.80002 14.1515 9.36143 14.7129 10.0491 14.7129C10.7369 14.7129 11.2983 14.1515 11.2983 13.4638C11.2983 12.776 10.7369 12.2146 10.0491 12.2146ZM12.8141 17.6743C13.2913 17.6743 14.9193 17.6181 15.7755 16.762C15.9018 16.6357 15.9018 16.4392 15.8035 16.2988C15.6772 16.1725 15.4667 16.1725 15.3404 16.2988C14.793 16.8322 13.6562 17.0287 12.8281 17.0287C12 17.0287 10.8491 16.8322 10.3158 16.2988C10.1895 16.1725 9.97897 16.1725 9.85266 16.2988C9.72634 16.4252 9.72634 16.6357 9.85266 16.762C10.6948 17.6041 12.3369 17.6743 12.8141 17.6743ZM14.3018 13.4638C14.3018 14.1515 14.8632 14.7129 15.5509 14.7129C16.2386 14.7129 16.8 14.1515 16.8 13.4638C16.8 12.776 16.2386 12.2146 15.5509 12.2146C14.8632 12.2146 14.3018 12.776 14.3018 13.4638Z" fill="#606060"/>
</svg>
