<svg width="186" height="78" viewBox="0 0 186 78" fill="none" xmlns="http://www.w3.org/2000/svg">
<path fill-rule="evenodd" clip-rule="evenodd" d="M156.86 21.8817C151.911 24.2752 146.922 26.5904 141.962 28.8917C135.775 31.7628 129.634 34.6122 123.676 37.565C109.787 44.449 96.2453 52.0334 82.8855 59.9932C82.0482 60.4921 81.2411 61.0612 80.3063 61.7205C79.7829 62.0895 79.2196 62.4868 78.5885 62.9158C77.0029 63.9935 75.0747 65.2012 72.9985 65.8686C72.3507 66.0768 71.3722 66.1604 70.3874 65.6339C69.4884 65.1533 69.07 64.4185 68.8957 64.0231C68.5962 63.344 68.6015 62.7293 68.6026 62.5999L68.6026 62.5886C68.6046 62.1994 68.6694 61.8489 68.6969 61.7036C68.7687 61.3246 68.8819 60.8888 68.9801 60.5332C69.154 59.9035 69.4366 58.9705 69.5869 58.6184C70.3794 56.7617 71.3233 55.0223 72.2755 53.379C71.3872 53.8588 70.4927 54.3553 69.5781 54.8632L69.5507 54.8784C67.8238 55.8373 66.0237 56.8369 64.1722 57.7627C59.7197 59.9889 55.1494 62.077 50.6409 64.137C48.335 65.1905 46.0453 66.2367 43.7958 67.2901C42.4975 67.8981 41.2138 68.6085 39.812 69.3843C39.6665 69.4648 39.5197 69.546 39.3715 69.6279C37.8418 70.4732 36.1723 71.382 34.4301 72.1286C34.2132 72.2216 33.8392 72.3613 33.363 72.415C32.8866 72.4686 32.0581 72.4607 31.2093 71.9582C29.3278 70.8444 29.5202 68.8399 29.5427 68.6098C29.5935 68.0892 29.7472 67.6605 29.8208 67.4652C29.9132 67.2199 30.0186 66.9894 30.1085 66.8029C30.2826 66.4423 30.4908 66.0601 30.6426 65.7815L30.6533 65.7619C30.8394 65.4204 30.9243 65.2613 30.9587 65.1869C31.6591 63.6725 32.494 62.2472 33.2827 60.9466C33.4009 60.7516 33.5174 60.5605 33.6323 60.3725C28.5249 63.2969 23.4838 66.3214 18.4002 69.3715C17.6265 69.8357 16.8517 70.3006 16.0756 70.7657C15.2582 71.2556 14.3823 71.8089 13.4639 72.389C10.9971 73.947 8.22435 75.6983 5.45941 76.9337C5.44995 76.9379 5.43966 76.9425 5.42856 76.9475C5.17588 77.061 4.50591 77.3619 3.78395 77.43C3.47278 77.4593 1.99816 77.5703 0.867431 76.3053C-0.254081 75.0507 0.0121046 73.6092 0.0663691 73.3321C0.151435 72.8976 0.303733 72.5528 0.359111 72.4285C0.431752 72.2655 0.511094 72.1093 0.560129 72.0131C0.57803 71.978 0.594899 71.945 0.610898 71.9138C0.701256 71.7371 0.7639 71.6146 0.828382 71.47C2.39405 67.9578 3.99345 64.3784 5.74617 60.855C6.61307 59.1124 7.48526 57.3855 8.3532 55.6671C10.8313 50.7605 13.2749 45.9224 15.4622 40.9808C16.2076 39.2968 18.177 38.5359 19.861 39.2812C21.545 40.0266 22.3059 41.996 21.5605 43.68C19.2982 48.7911 16.7428 53.8502 14.2429 58.7997C13.3899 60.4884 12.5434 62.1644 11.7171 63.8254C11.2953 64.6732 10.8821 65.5259 10.4749 66.3833C11.1754 65.9432 11.8964 65.4955 12.6472 65.0455C13.4196 64.5826 14.1925 64.1189 14.9659 63.6548C20.5972 60.2761 26.2597 56.8786 32.0202 53.616C33.1704 52.9645 34.2933 52.2493 35.5026 51.479C35.6023 51.4156 35.7025 51.3517 35.8034 51.2875C37.0986 50.4631 38.4921 49.5839 39.9596 48.7907C39.9652 48.7876 39.9721 48.7839 39.98 48.7796C40.1128 48.7071 40.5514 48.4678 41.0388 48.339C41.2006 48.2962 41.5244 48.2213 41.9363 48.222C42.3274 48.2225 43.1341 48.2922 43.9269 48.8732C44.8195 49.5274 45.1793 50.4429 45.2719 51.1459C45.3521 51.7543 45.2457 52.2355 45.1916 52.4452C45.085 52.8583 44.9184 53.1735 44.8743 53.257L44.871 53.2631C44.8054 53.3875 44.7388 53.4994 44.7035 53.5584C44.6718 53.6114 44.6467 53.6528 44.6252 53.6884C44.5818 53.7602 44.5526 53.8084 44.5124 53.8795C44.0003 54.7855 43.5603 55.7581 43.055 56.8898C43.0357 56.9329 43.0163 56.9763 42.9969 57.0199C42.5258 58.0753 41.9897 59.2761 41.3434 60.4461C41.1856 60.7316 41.0231 61.0175 40.8579 61.3022C40.8944 61.2849 40.9309 61.2678 40.9674 61.2507C43.3405 60.1393 45.6902 59.066 48.0227 58.0005C52.4598 55.9737 56.8346 53.9753 61.1897 51.7978C62.9006 50.9423 64.5844 50.008 66.3406 49.0328L66.3727 49.015C68.0979 48.057 69.8949 47.0591 71.7415 46.1358C72.5465 45.7333 73.3569 45.3949 74.0541 45.104L74.0708 45.097C74.7511 44.8132 75.3283 44.5724 75.8754 44.3088C75.9049 44.2902 75.9548 44.2587 76.0308 44.2099L76.036 44.2066C76.2044 44.0985 76.4656 43.9309 76.743 43.7691C77.0021 43.618 77.4006 43.3972 77.8414 43.2287C78.0603 43.145 78.4029 43.0295 78.8165 42.9708C79.1821 42.9188 79.9722 42.8551 80.8421 43.2465C82.8165 44.135 82.9712 46.0787 82.9648 46.6676C82.9572 47.3666 82.7734 47.9871 82.6522 48.3495C82.3855 49.1471 81.958 50.0111 81.5869 50.7075C81.1955 51.4418 80.7756 52.1573 80.4494 52.6982C80.2847 52.9712 80.1406 53.205 80.0326 53.3793C80.005 53.424 79.9763 53.4701 79.9516 53.51C79.9317 53.542 79.9143 53.57 79.9019 53.5901C79.8766 53.6309 79.8659 53.6483 79.8637 53.652C79.8622 53.6543 79.8641 53.6511 79.8678 53.6449C79.7497 53.8449 79.6327 54.0423 79.5167 54.2374C92.9606 46.2285 106.643 38.5638 120.715 31.5897C127.013 28.4683 133.295 25.5555 139.533 22.6634C149.949 17.8343 160.241 13.0626 170.276 7.47247C171.744 6.65454 174.699 4.7469 177.027 3.22186C177.646 2.81658 178.233 2.43023 178.712 2.11522C179.092 1.86529 179.403 1.66027 179.608 1.52632C179.727 1.44863 179.836 1.37774 179.916 1.32738L179.92 1.32512C179.944 1.30986 180.032 1.25396 180.127 1.2009C180.151 1.18757 180.235 1.14032 180.346 1.08839C180.392 1.06681 180.527 1.00391 180.708 0.943635C180.806 0.912595 181.06 0.847226 181.217 0.817291C181.488 0.78361 182.284 0.813009 182.794 0.935211C183.663 1.36604 184.892 2.95054 185.096 3.9885C185.062 4.59834 184.801 5.4833 184.658 5.76282C184.441 6.14259 184.192 6.39458 184.152 6.43414L184.149 6.43803C184.019 6.57076 183.903 6.6656 183.881 6.68421L183.878 6.68608C183.719 6.81712 183.397 7.04024 183.134 7.22202L183.062 7.27206C180.907 8.76374 178.976 10.5856 176.873 12.5709C176.349 13.0658 175.813 13.5709 175.261 14.0836C171.162 17.8902 167.047 21.6663 162.901 25.4135C163.053 25.3972 163.211 25.3879 163.373 25.3879H163.377C163.635 25.3879 165.126 25.3877 166.164 26.7259C167.339 28.2402 166.748 29.8353 166.617 30.1556C166.423 30.634 166.16 30.9848 166.049 31.1281C165.908 31.3117 165.764 31.473 165.659 31.5883C165.55 31.7069 165.334 31.9307 165.207 32.0624C165.16 32.1109 165.126 32.1469 165.113 32.1607C165.079 32.1962 165.054 32.2237 165.036 32.2437C164.84 32.5489 164.563 32.9474 164.298 33.3282C164.197 33.4745 164.097 33.6181 164.004 33.7529C163.577 34.3733 163.133 35.0393 162.753 35.6891C162.93 35.6919 163.111 35.6932 163.301 35.6947C163.474 35.696 163.654 35.6974 163.846 35.6999C164.4 35.707 165.274 35.7207 166.04 35.8864C166.798 36.0502 167.582 36.4059 168.243 37.0426C168.901 37.6757 169.271 38.4259 169.46 39.121C169.805 40.391 169.597 41.6495 169.381 42.5181C168.927 44.3441 167.902 46.4297 166.89 48.2453C165.133 51.4003 162.887 54.6476 162.046 55.8627C161.9 56.0738 161.797 56.2236 161.745 56.3009C161.546 56.6024 161.137 57.1384 160.711 57.6967C160.511 57.9588 160.308 58.2257 160.12 58.4756C159.434 59.3897 158.676 60.4416 158.039 61.4697C157.714 61.9957 157.457 62.4573 157.266 62.8469C157.574 62.9162 157.926 62.9773 158.324 63.0293C159.112 63.132 159.807 63.1746 160.577 63.2218C161.046 63.2506 161.543 63.2811 162.106 63.328C163.941 63.481 165.305 65.0927 165.152 66.9279C164.999 68.7631 163.388 70.1269 161.552 69.974C161.267 69.9502 160.907 69.9273 160.504 69.9016C159.588 69.8434 158.45 69.771 157.462 69.6423C155.953 69.4456 154.098 69.0578 152.444 68.0546C151.25 67.3307 150.547 66.2099 150.293 65.0124C150.065 63.9419 150.216 62.9352 150.408 62.1864C150.789 60.698 151.613 59.1814 152.369 57.96C153.162 56.679 154.06 55.4412 154.785 54.4737C155.062 54.105 155.324 53.7618 155.545 53.473C155.613 53.3833 155.678 53.2988 155.737 53.2204C155.867 53.0503 155.971 52.9121 156.054 52.8C156.077 52.769 156.097 52.7417 156.115 52.7176C156.128 52.6988 156.141 52.6819 156.151 52.667C156.163 52.6504 156.172 52.6376 156.178 52.6285C156.185 52.6191 156.187 52.6153 156.187 52.6162C156.284 52.4692 156.443 52.2387 156.649 51.9397C157.589 50.5769 159.51 47.791 161.064 45C161.618 44.0053 162.068 43.1088 162.394 42.3521C162.161 42.3467 161.924 42.3388 161.693 42.3268C160.95 42.2884 159.992 42.1993 159.069 41.9189C158.176 41.6478 156.839 41.0526 155.989 39.6568C155.267 38.4698 155.252 37.2234 155.4 36.2822C153.695 36.9314 151.955 37.4897 150.205 37.9368C149.634 38.0826 148.916 38.23 148.198 38.2057C147.767 38.1911 145.436 38.0192 144.729 35.6388C144.448 34.69 144.633 33.8817 144.771 33.4584C144.918 33.0112 145.123 32.6599 145.268 32.4363C145.559 31.9873 145.911 31.6003 146.179 31.3261C146.737 30.7533 147.415 30.1803 147.913 29.7733C148.173 29.5608 148.411 29.3724 148.586 29.2332C148.673 29.1638 148.731 29.1175 148.768 29.0882C148.827 29.0413 148.832 29.0376 148.815 29.0523C151.512 26.6745 154.192 24.2845 156.86 21.8817ZM156.844 63.9595C156.844 63.96 156.844 63.9556 156.846 63.9462C156.845 63.9546 156.844 63.9591 156.844 63.9595ZM160.97 35.5251C160.971 35.5249 160.978 35.5272 160.991 35.5327C160.977 35.528 160.97 35.5253 160.97 35.5251ZM161.989 37.307C161.984 37.3565 161.977 37.3841 161.975 37.3856C161.973 37.3871 161.975 37.3624 161.989 37.307ZM75.2449 62.9715C75.2446 62.9722 75.2458 62.9636 75.2494 62.9444C75.2469 62.9614 75.2452 62.9709 75.2449 62.9715ZM43.2256 54.6088C43.2246 54.6098 43.2084 54.6182 43.1796 54.6315C43.2121 54.6145 43.2266 54.6079 43.2256 54.6088ZM76.3456 46.1739C76.346 46.1736 76.3439 46.1827 76.338 46.202C76.3422 46.1838 76.3452 46.1742 76.3456 46.1739Z" fill="#00FFF0" fill-opacity="0.5"/>
</svg>
