<svg width="1440" height="585" viewBox="0 0 1440 585" fill="none" xmlns="http://www.w3.org/2000/svg">
<path fill-rule="evenodd" clip-rule="evenodd" d="M1285.95 136.683C1243.77 155.977 1201.26 174.637 1159 193.186C1106.28 216.327 1053.96 239.294 1003.19 263.096C884.836 318.585 769.447 379.727 655.604 443.9C648.469 447.922 641.591 452.511 633.624 457.826C629.165 460.802 624.364 464.005 618.986 467.464C605.474 476.153 589.043 485.89 571.353 491.267C565.834 492.944 557.497 493.615 549.11 489.363C541.453 485.481 537.892 479.551 536.408 476.36C533.859 470.88 533.906 465.92 533.916 464.875L533.917 464.785C533.935 461.644 534.489 458.816 534.724 457.644C535.336 454.586 536.302 451.071 537.14 448.202C538.624 443.122 541.035 435.595 542.317 432.755C549.075 417.777 557.123 403.745 565.241 390.49C557.671 394.358 550.049 398.361 542.256 402.455L542.022 402.578C527.307 410.308 511.968 418.366 496.191 425.828C458.252 443.773 419.309 460.604 380.893 477.207C361.245 485.699 341.735 494.131 322.567 502.622C311.505 507.522 300.566 513.249 288.621 519.503C287.381 520.152 286.131 520.807 284.868 521.467C271.833 528.281 257.607 535.607 242.762 541.625C240.914 542.374 237.727 543.5 233.67 543.931C229.612 544.362 222.554 544.295 215.324 540.237C199.3 531.243 200.947 515.07 201.139 513.214C201.574 509.013 202.885 505.555 203.513 503.979C204.301 502 205.199 500.141 205.966 498.637C207.45 495.728 209.226 492.645 210.52 490.397L210.611 490.239C212.197 487.485 212.922 486.201 213.215 485.601C219.188 473.384 226.305 461.888 233.029 451.397C234.037 449.824 235.03 448.282 236.009 446.766C192.488 470.342 149.531 494.726 106.212 519.316C99.6189 523.058 93.0171 526.806 86.4036 530.556C79.4384 534.505 71.9739 538.966 64.148 543.643C43.1272 556.204 19.4994 570.324 -4.05997 580.281C-4.14055 580.315 -4.22826 580.352 -4.32283 580.392C-6.47584 581.307 -12.1845 583.732 -18.3352 584.279C-20.9863 584.514 -33.549 585.404 -43.1771 575.193C-52.7267 565.065 -50.4537 553.436 -49.9904 551.2C-49.2641 547.694 -47.9653 544.913 -47.4931 543.91C-46.8736 542.595 -46.1971 541.335 -45.7791 540.56C-45.6264 540.276 -45.4826 540.01 -45.3462 539.758C-44.5757 538.333 -44.0416 537.345 -43.4918 536.178C-30.1406 507.846 -16.5018 478.971 -1.55705 450.549C5.83468 436.492 13.2714 422.562 20.6719 408.7C41.8017 369.121 62.6368 330.094 81.2891 290.23C87.6453 276.645 104.426 270.513 118.769 276.534C133.112 282.555 139.587 298.448 133.231 312.033C113.939 353.263 92.1509 394.074 70.835 433.999C63.562 447.622 56.344 461.141 49.2989 474.539C45.7026 481.379 42.1791 488.257 38.7065 495.174C44.6762 491.625 50.82 488.016 57.218 484.388C63.8 480.656 70.3857 476.917 76.9763 473.176C124.962 445.936 173.214 418.546 222.301 392.244C232.102 386.992 241.671 381.225 251.976 375.015C252.825 374.503 253.679 373.989 254.539 373.471C265.576 366.824 277.451 359.736 289.955 353.342C290.004 353.317 290.062 353.287 290.129 353.252C291.261 352.668 294.999 350.738 299.151 349.701C300.53 349.357 303.288 348.754 306.798 348.76C310.129 348.767 317.002 349.332 323.753 354.023C331.355 359.305 334.416 366.693 335.203 372.366C335.883 377.275 334.975 381.157 334.514 382.849C333.604 386.182 332.183 388.725 331.808 389.398L331.78 389.447C331.221 390.451 330.652 391.353 330.351 391.829C330.081 392.256 329.868 392.59 329.684 392.878C329.314 393.457 329.065 393.845 328.722 394.419C324.356 401.728 320.605 409.573 316.295 418.702C316.131 419.05 315.966 419.4 315.8 419.752C311.782 428.265 307.211 437.952 301.7 447.39C300.355 449.693 298.97 451.999 297.562 454.295C297.873 454.157 298.184 454.018 298.495 453.88C318.716 444.923 338.737 436.272 358.611 427.684C396.419 411.348 433.696 395.241 470.806 377.688C485.384 370.793 499.732 363.26 514.697 355.399L514.97 355.255C529.672 347.532 544.984 339.488 560.719 332.046C567.578 328.801 574.483 326.074 580.424 323.729L580.566 323.673C586.362 321.386 591.28 319.445 595.943 317.321C596.194 317.171 596.619 316.917 597.267 316.523L597.311 316.496C598.746 315.625 600.971 314.273 603.336 312.969C605.544 311.751 608.939 309.971 612.695 308.613C614.56 307.938 617.479 307.008 621.003 306.536C624.118 306.118 630.849 305.607 638.258 308.769C655.075 315.946 656.386 331.629 656.329 336.38C656.261 342.021 654.693 347.026 653.659 349.95C651.385 356.384 647.74 363.354 644.575 368.971C641.239 374.895 637.659 380.666 634.877 385.029C633.473 387.231 632.245 389.118 631.324 390.523C631.089 390.884 630.845 391.256 630.633 391.578C630.464 391.836 630.316 392.062 630.21 392.224C629.994 392.552 629.903 392.693 629.884 392.723C629.872 392.741 629.888 392.716 629.919 392.666C628.912 394.279 627.915 395.871 626.926 397.445C741.486 332.877 858.079 271.087 977.982 214.871C1031.65 189.71 1085.18 166.234 1138.33 142.923C1227.08 103.999 1314.78 65.5385 1400.29 20.4736C1412.8 13.8798 1437.98 -1.50059 1457.82 -13.7964C1463.09 -17.064 1468.1 -20.179 1472.18 -22.7188C1475.41 -24.7339 1478.07 -26.387 1479.81 -27.4669C1480.83 -28.0933 1481.76 -28.6648 1482.44 -29.0708L1482.47 -29.0891C1482.67 -29.2121 1483.42 -29.6628 1484.23 -30.0905C1484.44 -30.198 1485.16 -30.5789 1486.1 -30.9975C1486.49 -31.1714 1487.65 -31.6784 1489.19 -32.164C1490.02 -32.4141 1492.19 -32.9405 1493.52 -33.1815C1495.83 -33.4521 1502.61 -33.2118 1506.95 -32.2238C1514.36 -28.7442 1524.82 -15.9546 1526.56 -7.57885C1526.26 -2.65845 1524.04 4.48093 1522.82 6.73571C1520.97 9.79906 1518.84 11.8313 1518.51 12.1504L1518.47 12.1818C1517.37 13.2521 1516.38 14.0169 1516.19 14.167L1516.17 14.1821C1514.82 15.2388 1512.07 17.0378 1509.83 18.5034L1509.21 18.907C1490.85 30.9343 1474.4 45.6266 1456.47 61.637C1452 65.6283 1447.44 69.7015 1442.73 73.8357C1407.8 104.534 1372.72 134.985 1337.4 165.204C1338.69 165.073 1340.03 164.999 1341.42 165L1341.45 165C1343.64 165 1356.34 165.005 1365.18 175.806C1375.19 188.029 1370.15 200.897 1369.04 203.481C1367.38 207.34 1365.13 210.169 1364.19 211.325C1362.99 212.806 1361.76 214.107 1360.86 215.037C1359.93 215.993 1358.1 217.798 1357.01 218.861C1356.61 219.252 1356.32 219.542 1356.21 219.653C1355.92 219.94 1355.71 220.161 1355.55 220.323C1353.88 222.785 1351.52 225.999 1349.27 229.07C1348.4 230.25 1347.55 231.409 1346.76 232.496C1343.12 237.5 1339.33 242.872 1336.1 248.114C1337.6 248.136 1339.14 248.148 1340.77 248.161C1342.23 248.172 1343.77 248.184 1345.4 248.205C1350.13 248.264 1357.57 248.378 1364.1 249.718C1370.55 251.043 1377.23 253.916 1382.86 259.056C1388.46 264.167 1391.61 270.221 1393.21 275.831C1396.15 286.079 1394.38 296.232 1392.53 303.24C1388.66 317.972 1379.91 334.795 1371.29 349.441C1356.31 374.89 1337.16 401.083 1330 410.884C1328.75 412.587 1327.87 413.795 1327.43 414.418C1325.73 416.85 1322.24 421.174 1318.62 425.677C1316.91 427.79 1315.18 429.943 1313.58 431.959C1307.73 439.332 1301.27 447.816 1295.84 456.108C1293.07 460.352 1290.88 464.075 1289.25 467.218C1291.88 467.778 1294.87 468.273 1298.26 468.693C1304.98 469.525 1310.9 469.872 1317.45 470.256C1321.45 470.49 1325.69 470.738 1330.48 471.119C1346.11 472.36 1357.73 485.37 1356.42 500.177C1355.11 514.984 1341.37 525.982 1325.74 524.74C1323.31 524.548 1320.24 524.361 1316.81 524.153C1309.01 523.679 1299.31 523.09 1290.89 522.048C1278.03 520.455 1262.24 517.319 1248.15 509.218C1237.98 503.373 1231.99 494.326 1229.83 484.663C1227.9 476.025 1229.19 467.902 1230.82 461.861C1234.07 449.854 1241.1 437.62 1247.55 427.768C1254.3 417.436 1261.96 407.451 1268.15 399.648C1270.5 396.674 1272.74 393.906 1274.62 391.577C1275.2 390.853 1275.75 390.171 1276.26 389.539C1277.36 388.167 1278.25 387.053 1278.96 386.149C1279.16 385.899 1279.33 385.678 1279.48 385.484C1279.6 385.332 1279.7 385.196 1279.79 385.076C1279.89 384.942 1279.97 384.839 1280.02 384.765C1280.08 384.689 1280.1 384.658 1280.09 384.666C1280.92 383.48 1282.28 381.621 1284.03 379.209C1292.04 368.217 1308.42 345.747 1321.67 323.233C1326.4 315.209 1330.23 307.977 1333.01 301.873C1331.03 301.829 1329 301.764 1327.04 301.667C1320.71 301.354 1312.55 300.631 1304.69 298.365C1297.08 296.174 1285.69 291.366 1278.46 280.101C1272.31 270.52 1272.19 260.464 1273.45 252.87C1258.92 258.101 1244.09 262.6 1229.19 266.2C1224.32 267.374 1218.2 268.561 1212.09 268.362C1208.42 268.242 1188.56 266.846 1182.55 247.637C1180.15 239.98 1181.73 233.459 1182.91 230.044C1184.16 226.436 1185.91 223.603 1187.15 221.799C1189.63 218.178 1192.63 215.056 1194.91 212.845C1199.67 208.225 1205.45 203.605 1209.69 200.323C1211.91 198.609 1213.93 197.09 1215.43 195.967C1216.17 195.408 1216.67 195.035 1216.98 194.798C1217.48 194.42 1217.52 194.39 1217.38 194.509C1240.36 175.333 1263.21 156.06 1285.95 136.683ZM1285.65 476.193C1285.65 476.197 1285.65 476.162 1285.66 476.086C1285.66 476.154 1285.65 476.19 1285.65 476.193ZM1320.91 246.783C1320.91 246.782 1320.97 246.8 1321.08 246.844C1320.96 246.806 1320.91 246.784 1320.91 246.783ZM1329.58 261.165C1329.54 261.564 1329.48 261.787 1329.46 261.799C1329.44 261.811 1329.46 261.612 1329.58 261.165ZM590.501 467.9C590.499 467.906 590.509 467.836 590.54 467.681C590.519 467.819 590.504 467.895 590.501 467.9ZM317.757 400.299C317.749 400.306 317.611 400.374 317.365 400.481C317.642 400.345 317.765 400.291 317.757 400.299ZM599.941 332.371C599.945 332.369 599.926 332.442 599.876 332.598C599.912 332.451 599.938 332.373 599.941 332.371Z" fill="#00FFF0" fill-opacity="0.5"/>
</svg>
