<svg width="25" height="24" viewBox="0 0 25 24" fill="none" xmlns="http://www.w3.org/2000/svg">
<g clip-path="url(#clip0_414_3796)">
<path fill-rule="evenodd" clip-rule="evenodd" d="M24.6665 12.0001C24.6665 18.6275 19.2939 24.0001 12.6665 24.0001C6.03909 24.0001 0.666504 18.6275 0.666504 12.0001C0.666504 5.37267 6.03909 9.15527e-05 12.6665 9.15527e-05C19.2939 9.15527e-05 24.6665 5.37267 24.6665 12.0001ZM13.0965 8.85917C11.9294 9.34464 9.59666 10.3494 6.09841 11.8736C5.53035 12.0995 5.23278 12.3205 5.20569 12.5365C5.15991 12.9017 5.61724 13.0455 6.24 13.2414C6.32471 13.268 6.41248 13.2956 6.50246 13.3249C7.11516 13.524 7.93935 13.757 8.36781 13.7663C8.75647 13.7747 9.19025 13.6144 9.66916 13.2856C12.9377 11.0792 14.6249 9.96405 14.7308 9.94001C14.8056 9.92305 14.9091 9.90172 14.9793 9.96409C15.0495 10.0265 15.0426 10.1446 15.0351 10.1762C14.9898 10.3694 13.1946 12.0384 12.2656 12.902C11.976 13.1713 11.7706 13.3623 11.7286 13.4059C11.6345 13.5036 11.5386 13.596 11.4465 13.6848C10.8773 14.2336 10.4504 14.6451 11.4701 15.317C11.9602 15.6399 12.3523 15.907 12.7435 16.1734C13.1707 16.4643 13.5968 16.7545 14.1481 17.1159C14.2886 17.208 14.4228 17.3036 14.5534 17.3968C15.0506 17.7512 15.4973 18.0697 16.0491 18.0189C16.3698 17.9894 16.701 17.6879 16.8692 16.7886C17.2667 14.6634 18.0482 10.0587 18.2287 8.16122C18.2446 7.99497 18.2247 7.78221 18.2087 7.68882C18.1927 7.59542 18.1593 7.46235 18.0379 7.36384C17.8941 7.24718 17.6722 7.22258 17.5729 7.22433C17.1215 7.23228 16.4291 7.47306 13.0965 8.85917Z" fill="#D8D8D8"/>
</g>
<defs>
<clipPath id="clip0_414_3796">
<rect width="24" height="24" fill="white" transform="translate(0.666504)"/>
</clipPath>
</defs>
</svg>
