<svg viewBox="0 0 24 25" fill="none" xmlns="http://www.w3.org/2000/svg">
<g clip-path="url(#clip0_393_2093)">
<path fill-rule="evenodd" clip-rule="evenodd" d="M24.0001 12.2144C24.0001 18.8418 18.6275 24.2144 12.0001 24.2144C5.37264 24.2144 6.10352e-05 18.8418 6.10352e-05 12.2144C6.10352e-05 5.58694 5.37264 0.214355 12.0001 0.214355C18.6275 0.214355 24.0001 5.58694 24.0001 12.2144ZM12.4301 9.07343C11.2629 9.5589 8.93022 10.5637 5.43197 12.0878C4.86391 12.3137 4.56634 12.5347 4.53925 12.7508C4.49346 13.116 4.95079 13.2598 5.57355 13.4556C5.65826 13.4823 5.74603 13.5099 5.83602 13.5391C6.44872 13.7383 7.27291 13.9713 7.70137 13.9805C8.09002 13.9889 8.52381 13.8287 9.00272 13.4998C12.2712 11.2935 13.9585 10.1783 14.0644 10.1543C14.1391 10.1373 14.2427 10.116 14.3128 10.1784C14.383 10.2407 14.3761 10.3588 14.3687 10.3905C14.3234 10.5836 12.5282 12.2526 11.5992 13.1163C11.3096 13.3855 11.1042 13.5765 11.0622 13.6201C10.9681 13.7179 10.8722 13.8103 10.7801 13.8991C10.2108 14.4478 9.78399 14.8593 10.8037 15.5313C11.2937 15.8542 11.6858 16.1212 12.077 16.3876C12.5042 16.6786 12.9304 16.9688 13.4817 17.3302C13.6222 17.4222 13.7563 17.5179 13.887 17.611C14.3842 17.9655 14.8308 18.2839 15.3827 18.2331C15.7033 18.2036 16.0345 17.9021 16.2028 17.0029C16.6003 14.8776 17.3817 10.273 17.5623 8.37548C17.5781 8.20924 17.5582 7.99648 17.5422 7.90308C17.5263 7.80968 17.4928 7.67661 17.3714 7.57811C17.2277 7.46144 17.0057 7.43684 16.9064 7.43859C16.4551 7.44654 15.7626 7.68732 12.4301 9.07343Z" fill="#606060"/>
</g>
<defs>
<clipPath id="clip0_393_2093">
<rect width="100%" height="100%" fill="white" transform="translate(0 0.214355)"/>
</clipPath>
</defs>
</svg>
