<svg viewBox="0 0 24 25" fill="none" xmlns="http://www.w3.org/2000/svg">
<g clip-path="url(#clip0_393_2088)">
<path d="M7.5501 21.9646C16.6045 21.9646 21.5582 14.4613 21.5582 7.95646C21.5582 7.74552 21.5535 7.5299 21.5442 7.31896C22.5078 6.62206 23.3394 5.75885 23.9999 4.7699C23.1025 5.1692 22.1496 5.42998 21.1738 5.54334C22.2012 4.92751 22.9705 3.96007 23.339 2.82037C22.3725 3.39316 21.3155 3.79721 20.2134 4.01521C19.4708 3.22616 18.4889 2.70372 17.4196 2.52865C16.3503 2.35359 15.2531 2.53565 14.2977 3.0467C13.3422 3.55774 12.5817 4.36931 12.1338 5.35591C11.6858 6.34252 11.5754 7.44921 11.8195 8.5049C9.86243 8.40669 7.94788 7.8983 6.19992 7.0127C4.45197 6.12709 2.90963 4.88404 1.67291 3.36412C1.04434 4.44784 0.851996 5.73024 1.13497 6.95069C1.41794 8.17114 2.155 9.23805 3.19635 9.93459C2.41457 9.90977 1.64991 9.69928 0.965564 9.32052V9.38146C0.964864 10.5187 1.35804 11.6212 2.07825 12.5014C2.79846 13.3816 3.80126 13.9852 4.91619 14.2096C4.19199 14.4077 3.43192 14.4366 2.69478 14.294C3.00939 15.272 3.62151 16.1275 4.44571 16.7409C5.26991 17.3544 6.26506 17.6952 7.29228 17.7158C5.54836 19.0857 3.39411 19.8287 1.1765 19.8252C0.783226 19.8246 0.390338 19.8005 -6.10352e-05 19.753C2.2528 21.1983 4.87347 21.966 7.5501 21.9646Z" fill="#606060"/>
</g>
<defs>
<clipPath id="clip0_393_2088">
<rect width="100%" height="100%" fill="white" transform="translate(0 0.214355)"/>
</clipPath>
</defs>
</svg>
