<svg width="24" height="20" viewBox="0 0 24 20" fill="none" xmlns="http://www.w3.org/2000/svg">
<path d="M7.55016 19.7502C16.6045 19.7502 21.5583 12.2469 21.5583 5.74204C21.5583 5.53111 21.5536 5.31548 21.5442 5.10454C22.5079 4.40764 23.3395 3.54444 24 2.55548C23.1025 2.95478 22.1496 3.21557 21.1739 3.32892C22.2013 2.71309 22.9705 1.74566 23.3391 0.60595C22.3726 1.17874 21.3156 1.5828 20.2134 1.80079C19.4708 1.01174 18.489 0.489299 17.4197 0.314234C16.3504 0.139169 15.2532 0.321234 14.2977 0.83228C13.3423 1.34333 12.5818 2.15489 12.1338 3.14149C11.6859 4.1281 11.5754 5.2348 11.8195 6.29048C9.86249 6.19227 7.94794 5.68389 6.19998 4.79828C4.45203 3.91268 2.90969 2.66962 1.67297 1.1497C1.0444 2.23343 0.852057 3.51583 1.13503 4.73627C1.41801 5.95672 2.15506 7.02363 3.19641 7.72017C2.41463 7.69535 1.64998 7.48486 0.965625 7.10611V7.16704C0.964925 8.30433 1.3581 9.40677 2.07831 10.287C2.79852 11.1671 3.80132 11.7707 4.91625 11.9952C4.19206 12.1933 3.43198 12.2222 2.69484 12.0795C3.00946 13.0576 3.62157 13.9131 4.44577 14.5265C5.26997 15.14 6.26512 15.4808 7.29235 15.5014C5.54842 16.8713 3.39417 17.6143 1.17656 17.6108C0.783287 17.6102 0.390399 17.5861 0 17.5386C2.25286 18.9839 4.87353 19.7516 7.55016 19.7502Z" fill="#D8D8D8"/>
</svg>
