<svg width="1440" height="585" viewBox="0 0 1440 585" fill="none" xmlns="http://www.w3.org/2000/svg">
<path fill-rule="evenodd" clip-rule="evenodd" d="M1285.95 136.683C1243.77 155.977 1201.26 174.637 1159 193.186C1106.28 216.327 1053.96 239.294 1003.19 263.096C884.837 318.585 769.447 379.727 655.605 443.9C648.47 447.922 641.592 452.511 633.625 457.826C629.166 460.802 624.365 464.005 618.987 467.464C605.475 476.153 589.044 485.89 571.354 491.267C565.835 492.944 557.498 493.615 549.111 489.363C541.454 485.481 537.893 479.551 536.409 476.36C533.86 470.88 533.907 465.92 533.917 464.875L533.918 464.785C533.936 461.644 534.49 458.816 534.724 457.644C535.337 454.586 536.303 451.071 537.141 448.202C538.625 443.122 541.036 435.595 542.318 432.755C549.076 417.777 557.124 403.745 565.242 390.49C557.672 394.358 550.05 398.361 542.257 402.455L542.023 402.578C527.308 410.308 511.969 418.366 496.192 425.828C458.253 443.773 419.31 460.604 380.894 477.207C361.246 485.699 341.736 494.131 322.568 502.622C311.506 507.522 300.567 513.249 288.622 519.503C287.382 520.152 286.132 520.807 284.869 521.467C271.834 528.281 257.608 535.607 242.763 541.625C240.915 542.374 237.728 543.5 233.671 543.931C229.613 544.362 222.555 544.295 215.325 540.237C199.301 531.243 200.948 515.07 201.14 513.214C201.575 509.013 202.886 505.555 203.514 503.979C204.302 502 205.2 500.141 205.967 498.637C207.451 495.728 209.227 492.645 210.521 490.397L210.612 490.239C212.198 487.485 212.923 486.201 213.216 485.601C219.189 473.384 226.306 461.888 233.03 451.397C234.038 449.824 235.031 448.282 236.01 446.766C192.489 470.342 149.532 494.726 106.213 519.316C99.6199 523.058 93.018 526.806 86.4045 530.556C79.4394 534.505 71.9748 538.966 64.149 543.643C43.1282 556.204 19.5004 570.324 -4.05899 580.281C-4.13957 580.315 -4.22728 580.352 -4.32185 580.392C-6.47487 581.307 -12.1835 583.732 -18.3343 584.279C-20.9853 584.514 -33.5481 585.404 -43.1762 575.193C-52.7257 565.065 -50.4527 553.436 -49.9894 551.2C-49.2631 547.694 -47.9643 544.913 -47.4921 543.91C-46.8727 542.595 -46.1962 541.335 -45.7781 540.56C-45.6254 540.276 -45.4816 540.01 -45.3452 539.758C-44.5748 538.333 -44.0406 537.345 -43.4908 536.178C-30.1396 507.846 -16.5008 478.971 -1.55607 450.549C5.83566 436.492 13.2723 422.562 20.6728 408.7C41.8027 369.121 62.6378 330.094 81.2901 290.23C87.6463 276.645 104.427 270.513 118.77 276.534C133.113 282.555 139.588 298.448 133.232 312.033C113.94 353.263 92.1518 394.074 70.836 433.999C63.563 447.622 56.345 461.141 49.2999 474.539C45.7035 481.379 42.1801 488.257 38.7075 495.174C44.6772 491.625 50.821 488.016 57.2189 484.388C63.801 480.656 70.3866 476.917 76.9773 473.176C124.963 445.936 173.215 418.546 222.302 392.244C232.103 386.992 241.672 381.225 251.977 375.015C252.826 374.503 253.68 373.989 254.54 373.471C265.577 366.824 277.452 359.736 289.956 353.342C290.005 353.317 290.063 353.287 290.13 353.252C291.262 352.668 295 350.738 299.152 349.701C300.531 349.357 303.289 348.754 306.799 348.76C310.13 348.767 317.003 349.332 323.754 354.023C331.356 359.305 334.417 366.693 335.204 372.366C335.884 377.275 334.976 381.157 334.515 382.849C333.605 386.182 332.184 388.725 331.809 389.398L331.781 389.447C331.222 390.451 330.653 391.353 330.352 391.829C330.082 392.256 329.869 392.59 329.685 392.878C329.315 393.457 329.066 393.845 328.723 394.419C324.357 401.728 320.606 409.573 316.296 418.702C316.132 419.05 315.967 419.4 315.801 419.752C311.783 428.265 307.212 437.952 301.701 447.39C300.356 449.693 298.971 451.999 297.563 454.295C297.874 454.157 298.185 454.018 298.496 453.88C318.717 444.923 338.738 436.272 358.612 427.684C396.42 411.348 433.697 395.241 470.807 377.688C485.385 370.793 499.733 363.26 514.698 355.399L514.971 355.255C529.673 347.532 544.985 339.488 560.72 332.046C567.579 328.801 574.484 326.074 580.425 323.729L580.567 323.673C586.363 321.386 591.281 319.445 595.944 317.321C596.195 317.171 596.62 316.917 597.268 316.523L597.312 316.496C598.747 315.625 600.972 314.273 603.337 312.969C605.545 311.751 608.94 309.971 612.696 308.613C614.561 307.938 617.48 307.008 621.004 306.536C624.118 306.118 630.85 305.607 638.259 308.769C655.076 315.946 656.387 331.629 656.33 336.38C656.262 342.021 654.694 347.026 653.66 349.95C651.386 356.384 647.741 363.354 644.576 368.971C641.24 374.895 637.66 380.666 634.878 385.029C633.474 387.231 632.246 389.118 631.325 390.523C631.09 390.884 630.846 391.256 630.634 391.578C630.465 391.836 630.317 392.062 630.211 392.224C629.995 392.552 629.904 392.693 629.885 392.723C629.873 392.741 629.889 392.716 629.92 392.666C628.913 394.279 627.916 395.871 626.927 397.445C741.487 332.877 858.08 271.087 977.983 214.871C1031.65 189.71 1085.18 166.234 1138.33 142.923C1227.08 103.999 1314.78 65.5385 1400.29 20.4736C1412.8 13.8798 1437.98 -1.50059 1457.82 -13.7964C1463.09 -17.064 1468.1 -20.179 1472.18 -22.7188C1475.41 -24.7339 1478.07 -26.387 1479.81 -27.4669C1480.83 -28.0933 1481.76 -28.6648 1482.44 -29.0708L1482.47 -29.0891C1482.67 -29.2121 1483.43 -29.6628 1484.23 -30.0905C1484.44 -30.198 1485.16 -30.5789 1486.1 -30.9975C1486.49 -31.1714 1487.65 -31.6784 1489.19 -32.164C1490.02 -32.4141 1492.19 -32.9405 1493.52 -33.1815C1495.83 -33.4521 1502.61 -33.2118 1506.95 -32.2238C1514.36 -28.7442 1524.82 -15.9546 1526.56 -7.57885C1526.26 -2.65845 1524.04 4.48093 1522.82 6.73571C1520.97 9.79906 1518.84 11.8313 1518.51 12.1504L1518.47 12.1818C1517.37 13.2521 1516.39 14.0169 1516.19 14.167L1516.17 14.1821C1514.82 15.2388 1512.07 17.0378 1509.83 18.5034L1509.21 18.907C1490.85 30.9343 1474.4 45.6266 1456.47 61.637C1452 65.6283 1447.44 69.7015 1442.73 73.8357C1407.8 104.534 1372.72 134.985 1337.4 165.204C1338.69 165.073 1340.03 164.999 1341.42 165L1341.45 165C1343.64 165 1356.34 165.005 1365.18 175.806C1375.19 188.029 1370.15 200.897 1369.04 203.481C1367.38 207.34 1365.14 210.169 1364.19 211.325C1362.99 212.806 1361.76 214.107 1360.86 215.037C1359.93 215.993 1358.1 217.798 1357.01 218.861C1356.62 219.252 1356.32 219.542 1356.21 219.653C1355.92 219.94 1355.71 220.161 1355.55 220.323C1353.88 222.785 1351.52 225.999 1349.27 229.07C1348.4 230.25 1347.55 231.409 1346.76 232.496C1343.12 237.5 1339.33 242.872 1336.1 248.114C1337.6 248.136 1339.14 248.148 1340.77 248.161C1342.23 248.172 1343.77 248.184 1345.41 248.205C1350.13 248.264 1357.57 248.378 1364.1 249.718C1370.55 251.043 1377.23 253.916 1382.86 259.056C1388.46 264.167 1391.61 270.221 1393.22 275.831C1396.15 286.079 1394.38 296.232 1392.54 303.24C1388.66 317.972 1379.92 334.795 1371.29 349.441C1356.31 374.89 1337.16 401.083 1330 410.884C1328.75 412.587 1327.87 413.795 1327.43 414.418C1325.73 416.85 1322.25 421.174 1318.62 425.677C1316.91 427.79 1315.18 429.943 1313.58 431.959C1307.73 439.332 1301.27 447.816 1295.84 456.108C1293.07 460.352 1290.88 464.075 1289.25 467.218C1291.88 467.778 1294.87 468.273 1298.26 468.693C1304.98 469.525 1310.9 469.872 1317.45 470.256C1321.45 470.49 1325.69 470.738 1330.48 471.119C1346.11 472.36 1357.73 485.37 1356.42 500.177C1355.11 514.984 1341.37 525.982 1325.74 524.74C1323.31 524.548 1320.24 524.361 1316.81 524.153C1309.01 523.679 1299.31 523.09 1290.9 522.048C1278.04 520.455 1262.24 517.319 1248.15 509.218C1237.98 503.373 1232 494.326 1229.83 484.663C1227.9 476.025 1229.19 467.902 1230.83 461.861C1234.08 449.854 1241.1 437.62 1247.55 427.768C1254.31 417.436 1261.96 407.451 1268.15 399.648C1270.51 396.674 1272.74 393.906 1274.62 391.577C1275.2 390.853 1275.75 390.171 1276.26 389.539C1277.37 388.167 1278.26 387.053 1278.96 386.149C1279.16 385.899 1279.33 385.678 1279.48 385.484C1279.6 385.332 1279.7 385.196 1279.79 385.076C1279.89 384.942 1279.97 384.839 1280.02 384.765C1280.08 384.689 1280.1 384.658 1280.09 384.666C1280.92 383.48 1282.28 381.621 1284.04 379.209C1292.05 368.217 1308.42 345.747 1321.67 323.233C1326.4 315.209 1330.23 307.977 1333.01 301.873C1331.03 301.829 1329.01 301.764 1327.04 301.667C1320.71 301.354 1312.55 300.631 1304.69 298.365C1297.08 296.174 1285.69 291.366 1278.46 280.101C1272.31 270.52 1272.19 260.464 1273.45 252.87C1258.92 258.101 1244.09 262.6 1229.19 266.2C1224.32 267.374 1218.21 268.561 1212.09 268.362C1208.42 268.242 1188.56 266.846 1182.55 247.637C1180.16 239.98 1181.73 233.459 1182.91 230.044C1184.17 226.436 1185.91 223.603 1187.15 221.799C1189.63 218.178 1192.64 215.056 1194.91 212.845C1199.67 208.225 1205.45 203.605 1209.7 200.323C1211.91 198.609 1213.93 197.09 1215.43 195.967C1216.17 195.408 1216.67 195.035 1216.98 194.798C1217.48 194.42 1217.52 194.39 1217.38 194.509C1240.36 175.333 1263.21 156.06 1285.95 136.683ZM1285.65 476.193C1285.65 476.197 1285.65 476.162 1285.66 476.086C1285.66 476.154 1285.65 476.19 1285.65 476.193ZM1320.91 246.783C1320.91 246.782 1320.97 246.8 1321.08 246.844C1320.96 246.806 1320.91 246.784 1320.91 246.783ZM1329.58 261.165C1329.54 261.564 1329.48 261.787 1329.46 261.799C1329.44 261.811 1329.46 261.612 1329.58 261.165ZM590.502 467.9C590.5 467.906 590.51 467.836 590.541 467.681C590.52 467.819 590.505 467.895 590.502 467.9ZM317.758 400.299C317.75 400.306 317.612 400.374 317.366 400.481C317.643 400.345 317.766 400.291 317.758 400.299ZM599.942 332.371C599.946 332.369 599.927 332.442 599.877 332.598C599.913 332.451 599.939 332.373 599.942 332.371Z" fill="#00FFF0" fill-opacity="0.5"/>
</svg>
